<svg width="24" height="24" viewBox="0 0 24 24" fill="none" xmlns="http://www.w3.org/2000/svg">
<path fill-rule="evenodd" clip-rule="evenodd" d="M11.943 1.25H12.057C14.366 1.25 16.175 1.25 17.587 1.44C19.031 1.634 20.171 2.04 21.066 2.934C21.961 3.829 22.366 4.969 22.56 6.414C22.75 7.825 22.75 9.634 22.75 11.943V12.057C22.75 14.366 22.75 16.175 22.56 17.587C22.366 19.031 21.96 20.171 21.066 21.066C20.171 21.961 19.031 22.366 17.586 22.56C16.175 22.75 14.366 22.75 12.057 22.75H11.943C9.634 22.75 7.825 22.75 6.413 22.56C4.969 22.366 3.829 21.96 2.934 21.066C2.039 20.171 1.634 19.031 1.44 17.586C1.25 16.175 1.25 14.366 1.25 12.057V11.943C1.25 9.634 1.25 7.825 1.44 6.413C1.634 4.969 2.04 3.829 2.934 2.934C3.829 2.039 4.969 1.634 6.414 1.44C7.825 1.25 9.634 1.25 11.943 1.25ZM6.613 2.926C5.335 3.098 4.564 3.426 3.995 3.995C3.425 4.565 3.098 5.335 2.926 6.614C2.752 7.914 2.75 9.622 2.75 12C2.75 14.378 2.752 16.086 2.926 17.386C3.098 18.665 3.426 19.436 3.995 20.006C4.565 20.575 5.335 20.902 6.614 21.074C7.914 21.248 9.622 21.25 12 21.25C14.378 21.25 16.086 21.248 17.386 21.074C18.665 20.902 19.436 20.574 20.006 20.005C20.575 19.435 20.902 18.665 21.074 17.386C21.248 16.086 21.25 14.378 21.25 12C21.25 9.622 21.248 7.914 21.074 6.614C20.902 5.335 20.574 4.564 20.005 3.994C19.435 3.425 18.665 3.098 17.386 2.926C16.086 2.752 14.378 2.75 12 2.75C9.622 2.75 7.913 2.752 6.613 2.926ZM10.949 5.25H13.053C13.952 5.25 14.701 5.25 15.295 5.33C15.923 5.414 16.49 5.6 16.945 6.055C17.401 6.511 17.587 7.078 17.671 7.705C17.751 8.3 17.751 9.05 17.751 9.948V10.25H19C19.1989 10.25 19.3897 10.329 19.5303 10.4697C19.671 10.6103 19.75 10.8011 19.75 11C19.75 11.1989 19.671 11.3897 19.5303 11.5303C19.3897 11.671 19.1989 11.75 19 11.75H5C4.80109 11.75 4.61032 11.671 4.46967 11.5303C4.32902 11.3897 4.25 11.1989 4.25 11C4.25 10.8011 4.32902 10.6103 4.46967 10.4697C4.61032 10.329 4.80109 10.25 5 10.25H6.25V9.948C6.25 9.05 6.25 8.3 6.33 7.706C6.414 7.078 6.6 6.511 7.055 6.056C7.511 5.6 8.078 5.414 8.705 5.33C9.3 5.25 10.05 5.25 10.948 5.25M7.75 10.25H16.25V10C16.25 9.036 16.248 8.388 16.183 7.905C16.121 7.444 16.014 7.246 15.883 7.116C15.753 6.986 15.556 6.879 15.095 6.816C14.612 6.752 13.964 6.75 13 6.75H11C10.036 6.75 9.388 6.752 8.905 6.817C8.444 6.879 8.246 6.986 8.116 7.117C7.986 7.247 7.879 7.444 7.816 7.905C7.752 8.388 7.75 9.036 7.75 10V10.25ZM7.25 16C7.25 15.8011 7.32902 15.6103 7.46967 15.4697C7.61032 15.329 7.80109 15.25 8 15.25H16C16.1989 15.25 16.3897 15.329 16.5303 15.4697C16.671 15.6103 16.75 15.8011 16.75 16C16.75 16.1989 16.671 16.3897 16.5303 16.5303C16.3897 16.671 16.1989 16.75 16 16.75H8C7.80109 16.75 7.61032 16.671 7.46967 16.5303C7.32902 16.3897 7.25 16.1989 7.25 16Z" fill="#BAC0CA"/>
</svg>
