<svg width="56" height="56" viewBox="0 0 56 56" fill="none" xmlns="http://www.w3.org/2000/svg">
<path d="M18.1998 4.66669H37.7998C45.2665 4.66669 51.3332 10.7334 51.3332 18.2V37.8C51.3332 41.3893 49.9073 44.8315 47.3694 47.3695C44.8314 49.9075 41.3891 51.3334 37.7998 51.3334H18.1998C10.7332 51.3334 4.6665 45.2667 4.6665 37.8V18.2C4.6665 14.6108 6.09233 11.1685 8.63033 8.63051C11.1683 6.09252 14.6106 4.66669 18.1998 4.66669ZM17.7332 9.33335C15.5054 9.33335 13.3688 10.2184 11.7935 11.7937C10.2182 13.369 9.33317 15.5055 9.33317 17.7334V38.2667C9.33317 42.91 13.0898 46.6667 17.7332 46.6667H38.2665C40.4943 46.6667 42.6309 45.7817 44.2062 44.2064C45.7815 42.6311 46.6665 40.4945 46.6665 38.2667V17.7334C46.6665 13.09 42.9098 9.33335 38.2665 9.33335H17.7332ZM40.2498 12.8334C41.0234 12.8334 41.7653 13.1406 42.3122 13.6876C42.8592 14.2346 43.1665 14.9765 43.1665 15.75C43.1665 16.5236 42.8592 17.2654 42.3122 17.8124C41.7653 18.3594 41.0234 18.6667 40.2498 18.6667C39.4763 18.6667 38.7344 18.3594 38.1874 17.8124C37.6405 17.2654 37.3332 16.5236 37.3332 15.75C37.3332 14.9765 37.6405 14.2346 38.1874 13.6876C38.7344 13.1406 39.4763 12.8334 40.2498 12.8334ZM27.9998 16.3334C31.094 16.3334 34.0615 17.5625 36.2494 19.7504C38.4373 21.9384 39.6665 24.9058 39.6665 28C39.6665 31.0942 38.4373 34.0617 36.2494 36.2496C34.0615 38.4375 31.094 39.6667 27.9998 39.6667C24.9056 39.6667 21.9382 38.4375 19.7503 36.2496C17.5623 34.0617 16.3332 31.0942 16.3332 28C16.3332 24.9058 17.5623 21.9384 19.7503 19.7504C21.9382 17.5625 24.9056 16.3334 27.9998 16.3334ZM27.9998 21C26.1433 21 24.3628 21.7375 23.0501 23.0503C21.7373 24.363 20.9998 26.1435 20.9998 28C20.9998 29.8565 21.7373 31.637 23.0501 32.9498C24.3628 34.2625 26.1433 35 27.9998 35C29.8564 35 31.6368 34.2625 32.9496 32.9498C34.2623 31.637 34.9998 29.8565 34.9998 28C34.9998 26.1435 34.2623 24.363 32.9496 23.0503C31.6368 21.7375 29.8564 21 27.9998 21Z" fill="#0F122C"/>
</svg>
