<svg width="56" height="56" viewBox="0 0 56 56" fill="none" xmlns="http://www.w3.org/2000/svg">
<path d="M27.4539 7C25.6269 7.02925 23.8236 7.41939 22.1479 8.148C19.8449 9.14025 17.3494 11.0477 15.8042 14.4375C14.5879 17.1097 14.9572 20.447 15.1479 23.1875C14.8679 23.1332 14.6352 23.1595 14.2187 22.9687C13.8418 22.7916 13.431 22.6985 13.0147 22.6957C12.3042 22.6957 11.6969 22.8882 11.1019 23.2417C10.5069 23.597 9.81565 24.171 9.6249 25.1562C9.5094 25.7722 9.68615 26.6875 10.2269 27.3437C10.7659 28 11.5657 28.4637 12.6332 28.875C12.8852 28.9712 13.0777 29.0797 13.2894 29.148C13.7409 29.2845 14.2327 29.4227 14.5459 29.5855C14.8609 29.75 14.9099 29.8795 14.8749 29.8042C14.8436 29.9579 14.7881 30.1055 14.7104 30.2417L14.6562 30.2977C14.6089 30.3992 12.1344 35.7787 7.1084 36.5855C6.57103 36.6752 6.08516 36.9588 5.7427 37.3825C5.40023 37.8062 5.22492 38.3408 5.2499 38.885C5.2709 39.193 5.3654 39.466 5.46865 39.704C5.8589 40.6 6.63065 41.174 7.65615 41.6185C8.4839 41.9737 9.80865 42.2275 11.2664 42.4935C11.2927 42.5897 11.2927 42.5827 11.3189 42.7122C11.3889 43.0202 11.4712 43.4105 11.5937 43.806C11.7512 44.3257 12.1747 44.8927 12.6874 45.1745C13.2002 45.4545 13.6447 45.4475 13.8914 45.4475C14.4164 45.4475 14.7454 45.3512 15.0937 45.283C15.7589 45.1422 16.4367 45.0689 17.1167 45.0642C17.5752 45.0642 18.1019 45.0922 18.5937 45.1745C19.2762 45.283 20.0427 45.8027 21.1102 46.5395C22.6537 47.607 24.7187 49.0017 27.7252 49.0017H27.8354C27.9247 49.0017 28.0402 49.0087 28.1084 49.0017H28.2729C31.2812 49.0017 33.3392 47.607 34.8914 46.5412C35.9572 45.8097 36.7779 45.283 37.4604 45.1727C37.9308 45.0971 38.4067 45.0608 38.8832 45.0642C39.6969 45.0642 40.2779 45.1675 40.9062 45.283C41.3437 45.3652 41.6937 45.4475 42.1102 45.4475H42.1627C42.5669 45.4475 43.1287 45.3372 43.5854 45.01C44.0439 44.681 44.2907 44.149 44.4062 43.7517C44.5079 43.4082 44.599 43.0615 44.6792 42.7122C44.7072 42.5757 44.7072 42.5897 44.7352 42.4935C46.1912 42.2275 47.5177 41.9737 48.3437 41.6185C49.3692 41.174 50.1409 40.6 50.5312 39.7057C50.6489 39.4455 50.7228 39.1676 50.7499 38.8832C50.8112 37.7772 50.0114 36.7657 48.9457 36.5872H48.8897C46.3749 36.183 44.5374 34.72 43.2599 33.25C41.9824 31.78 41.3384 30.331 41.3454 30.352C41.3258 30.316 41.3077 30.2792 41.2912 30.2417C41.2135 30.1055 41.158 29.9579 41.1267 29.8042C41.0917 29.8795 41.1407 29.75 41.4557 29.5855C41.7707 29.4227 42.2607 29.2845 42.7122 29.148C42.9397 29.0797 43.1707 28.9712 43.4244 28.875C44.3607 28.5127 45.0239 28.1575 45.5559 27.6167C46.0897 27.0777 46.4449 26.2692 46.4309 25.5937C46.4047 24.1447 45.3372 23.345 44.2994 22.9687C44.2924 22.9687 44.3047 22.9145 44.2994 22.9145C44.2784 22.9075 44.2644 22.9215 44.2434 22.9145C43.8241 22.7575 43.3784 22.6832 42.9309 22.6957C42.6159 22.6957 42.1522 22.7027 41.5642 22.9687C41.2632 23.1052 41.0864 23.072 40.8537 23.1332C41.0462 20.405 41.4137 17.0957 40.1974 14.4375C38.6522 11.046 36.1637 9.09125 33.8537 8.09375C32.1414 7.36473 30.2984 6.99256 28.4374 7H27.5624C27.5484 7 27.6114 6.986 27.4539 7ZM27.5624 10.5H28.4374C29.1339 10.5 30.7404 10.5962 32.4292 11.3207C34.1179 12.0452 35.8469 13.3437 37.0229 15.9145C37.5637 17.1045 37.5899 20.5555 37.4062 23.352L37.3519 23.4605C37.3239 23.8507 37.3169 24.241 37.2959 24.6085C37.2825 24.8495 37.3194 25.0908 37.4044 25.3167C37.4894 25.5427 37.6205 25.7485 37.7894 25.921C37.9942 26.1275 38.7939 26.4967 39.6479 26.6875C39.0127 27.0497 38.2952 27.5222 37.8979 28.4375C37.4604 29.449 37.6599 30.5025 38.0624 31.4457C38.0774 31.501 38.0956 31.5553 38.1167 31.6085C38.1237 31.6225 38.1097 31.6505 38.1167 31.6645V31.7187C38.1307 31.7397 38.1587 31.7537 38.1727 31.773C38.3092 32.088 39.0337 33.7085 40.6332 35.5477C41.7007 36.771 43.2932 37.912 45.1709 38.829C44.5759 38.9777 44.3099 39.1212 43.3684 39.2665C42.5197 39.396 41.8774 40.1607 41.6709 40.6315C41.4802 41.0637 41.4329 41.433 41.3437 41.8355C40.6612 41.713 39.8947 41.5625 38.8832 41.5625C38.2269 41.5625 37.5217 41.6167 36.8584 41.727C35.1714 42 33.9814 42.91 32.9209 43.6397C31.3634 44.7072 30.2434 45.5 28.2729 45.5C28.2047 45.5 28.1364 45.507 28.0542 45.5C27.9814 45.4932 27.9082 45.4932 27.8354 45.5H27.7269C25.7582 45.5 24.6224 44.7072 23.0789 43.6397C22.0114 42.91 20.8354 42 19.1414 41.727C18.472 41.6181 17.7949 41.5631 17.1167 41.5625C16.0579 41.5625 15.2984 41.6727 14.7104 41.7812C14.6381 41.4067 14.5284 41.0403 14.3832 40.6875C14.1837 40.222 13.5764 39.41 12.6332 39.2647C11.7162 39.1282 11.4712 38.9777 10.8832 38.8272C15.4909 36.5995 17.6224 32.2927 17.8272 31.8272V31.7747C17.8272 31.766 17.8762 31.7327 17.8832 31.7187C17.9094 31.6715 17.9444 31.6365 17.9917 31.4457L17.8832 31.3897C18.2717 30.4465 18.5394 29.435 18.1019 28.4375C17.6907 27.4925 16.9469 26.9955 16.2977 26.6332C17.1097 26.4617 17.9252 26.215 18.2104 25.9227C18.379 25.7501 18.5098 25.5442 18.5945 25.3183C18.6791 25.0923 18.7158 24.8512 18.7022 24.6102C18.6829 24.199 18.6759 23.7877 18.6497 23.3502C18.4712 20.5502 18.4362 17.1027 18.9769 15.9127C20.1529 13.3437 21.8889 12.0452 23.5707 11.3207C24.8348 10.789 26.191 10.5102 27.5624 10.5Z" fill="#0F122C"/>
</svg>
