<svg width="56" height="56" viewBox="0 0 56 56" fill="none" xmlns="http://www.w3.org/2000/svg">
<g clip-path="url(#clip0_3_73)">
<path fill-rule="evenodd" clip-rule="evenodd" d="M41.9998 4.66669C43.8563 4.66669 45.6368 5.40419 46.9496 6.71694C48.2623 8.02969 48.9998 9.81017 48.9998 11.6667V42C48.9998 43.8565 48.2623 45.637 46.9496 46.9498C45.6368 48.2625 43.8563 49 41.9998 49H11.6665C9.80999 49 8.02951 48.2625 6.71676 46.9498C5.404 45.637 4.6665 43.8565 4.6665 42V11.6667C4.6665 9.81017 5.404 8.02969 6.71676 6.71694C8.02951 5.40419 9.80999 4.66669 11.6665 4.66669H41.9998ZM27.9998 32.6667H25.6665C25.0477 32.6667 24.4542 32.9125 24.0166 33.3501C23.579 33.7877 23.3332 34.3812 23.3332 35V44.3334H30.3332V35C30.3332 34.3812 30.0873 33.7877 29.6498 33.3501C29.2122 32.9125 28.6187 32.6667 27.9998 32.6667ZM32.9932 20.5264C32.2268 21.4074 31.2803 22.1139 30.2177 22.5982C29.1551 23.0824 28.0009 23.3331 26.8332 23.3334C25.6654 23.3331 24.5113 23.0824 23.4486 22.5982C22.386 22.1139 21.4396 21.4074 20.6732 20.5264C19.8038 21.4151 18.7657 22.1212 17.6198 22.6033C16.4738 23.0853 15.2431 23.3335 13.9998 23.3334C12.3617 23.334 10.7522 22.9035 9.33317 22.085V42C9.33317 42.6189 9.579 43.2124 10.0166 43.6499C10.4542 44.0875 11.0477 44.3334 11.6665 44.3334H18.6665V35C18.6665 33.1435 19.404 31.363 20.7168 30.0503C22.0295 28.7375 23.81 28 25.6665 28H27.9998C29.8564 28 31.6368 28.7375 32.9496 30.0503C34.2623 31.363 34.9998 33.1435 34.9998 35V44.3334H41.9998C42.6187 44.3334 43.2122 44.0875 43.6498 43.6499C44.0873 43.2124 44.3332 42.6189 44.3332 42V22.085C42.9141 22.9035 41.3047 23.334 39.6665 23.3334C37.0532 23.3334 34.6895 22.26 32.9932 20.5264ZM41.9998 9.33335H11.6665C11.095 9.33343 10.5434 9.54325 10.1163 9.92302C9.68922 10.3028 9.41637 10.8261 9.3495 11.3937L9.33317 11.6667V14C9.32775 15.211 9.79327 16.3766 10.6314 17.2507C11.4695 18.1248 12.6146 18.6388 13.8247 18.6843C15.0348 18.7297 16.2152 18.303 17.1165 17.4942C18.0178 16.6854 18.5694 15.558 18.6548 14.35L18.6665 14C18.6672 13.4053 18.8949 12.8333 19.3031 12.4008C19.7114 11.9684 20.2694 11.7081 20.8631 11.6733C21.4568 11.6384 22.0414 11.8316 22.4974 12.2133C22.9535 12.595 23.2466 13.1365 23.3168 13.727L23.3332 14V15.1667C23.3336 16.0655 23.6798 16.9297 24.3001 17.5803C24.9204 18.2308 25.7672 18.6177 26.665 18.6609C27.5628 18.7041 28.4428 18.4002 29.1226 17.8123C29.8025 17.2243 30.2301 16.3973 30.3168 15.5027L30.3332 15.1667V14C30.3332 13.3812 30.579 12.7877 31.0166 12.3501C31.4542 11.9125 32.0477 11.6667 32.6665 11.6667C33.2853 11.6667 33.8788 11.9125 34.3164 12.3501C34.754 12.7877 34.9998 13.3812 34.9998 14C34.9944 15.211 35.4599 16.3766 36.2981 17.2507C37.1362 18.1248 38.2812 18.6388 39.4914 18.6843C40.7015 18.7297 41.8819 18.303 42.7832 17.4942C43.6845 16.6854 44.2361 15.558 44.3215 14.35L44.3332 14V11.6667C44.3331 11.0952 44.1233 10.5436 43.7435 10.1165C43.3637 9.6894 42.8404 9.41655 42.2728 9.34969L41.9998 9.33335Z" fill="#0F122C"/>
</g>
<defs>
<clipPath id="clip0_3_73">
<rect width="56" height="56" fill="white"/>
</clipPath>
</defs>
</svg>
