<svg width="56" height="56" viewBox="0 0 56 56" fill="none" xmlns="http://www.w3.org/2000/svg">
<path d="M49 15.75C46.2161 15.7471 43.5471 14.6399 41.5786 12.6714C39.6101 10.7029 38.5029 8.03388 38.5 5.25C38.5 4.78587 38.3156 4.34075 37.9874 4.01256C37.6592 3.68437 37.2141 3.5 36.75 3.5H28C27.5359 3.5 27.0908 3.68437 26.7626 4.01256C26.4344 4.34075 26.25 4.78587 26.25 5.25V34.125C26.2496 34.9079 26.0392 35.6763 25.6407 36.3501C25.2422 37.024 24.6701 37.5785 23.9842 37.956C23.2984 38.3334 22.5238 38.5199 21.7413 38.496C20.9588 38.472 20.197 38.2386 19.5355 37.8199C18.8739 37.4013 18.3369 36.8128 17.9802 36.1159C17.6236 35.4189 17.4606 34.6391 17.5081 33.8576C17.5555 33.0762 17.8118 32.3218 18.2502 31.6732C18.6886 31.0246 19.293 30.5055 20.0003 30.17C20.2995 30.028 20.5523 29.804 20.7293 29.524C20.9062 29.2441 21.0001 28.9196 21 28.5884V19.25C21.0001 18.9942 20.9441 18.7415 20.836 18.5096C20.7279 18.2778 20.5703 18.0725 20.3742 17.9081C20.1782 17.7438 19.9485 17.6244 19.7014 17.5585C19.4542 17.4925 19.1956 17.4815 18.9437 17.5263C11.1366 18.9175 5.25 26.0531 5.25 34.125C5.25 38.5342 7.00156 42.7629 10.1193 45.8806C13.2371 48.9984 17.4658 50.75 21.875 50.75C26.2842 50.75 30.5129 48.9984 33.6306 45.8806C36.7484 42.7629 38.5 38.5342 38.5 34.125V25.4384C41.7411 27.1295 45.3443 28.0085 49 28C49.4641 28 49.9092 27.8156 50.2374 27.4874C50.5656 27.1592 50.75 26.7141 50.75 26.25V17.5C50.75 17.0359 50.5656 16.5908 50.2374 16.2626C49.9092 15.9344 49.4641 15.75 49 15.75ZM47.25 24.4212C43.8302 24.1181 40.5555 22.8976 37.7716 20.8884C37.5099 20.7003 37.2014 20.5881 36.88 20.5642C36.5586 20.5402 36.2369 20.6055 35.9502 20.7528C35.6636 20.9 35.4232 21.1236 35.2555 21.3988C35.0878 21.6741 34.9994 21.9902 35 22.3125V34.125C35 37.606 33.6172 40.9444 31.1558 43.4058C28.6944 45.8672 25.356 47.25 21.875 47.25C18.394 47.25 15.0556 45.8672 12.5942 43.4058C10.1328 40.9444 8.75 37.606 8.75 34.125C8.75 28.4594 12.39 23.3778 17.5 21.525V27.5778C16.3687 28.3337 15.4526 29.3697 14.8409 30.585C14.2292 31.8003 13.9427 33.1533 14.0095 34.5122C14.0763 35.8711 14.494 37.1895 15.2219 38.339C15.9498 39.4884 16.9631 40.4297 18.163 41.071C19.3629 41.7123 20.7085 42.0318 22.0687 41.9983C23.4288 41.9649 24.7571 41.5796 25.924 40.8801C27.0909 40.1805 28.0567 39.1906 28.7272 38.0068C29.3978 36.8229 29.7501 35.4855 29.75 34.125V7H35.1094C35.5029 10.0824 36.9086 12.9469 39.1059 15.1441C41.3031 17.3414 44.1676 18.7471 47.25 19.1406V24.4212Z" fill="#0F122C"/>
</svg>
