<svg width="56" height="56" viewBox="0 0 56 56" fill="none" xmlns="http://www.w3.org/2000/svg">
<path d="M27.9998 47.8333C32.2232 47.8333 36.2715 47.4157 40.0235 46.6503C44.7135 45.6937 47.0562 45.2177 49.1935 42.469C51.3332 39.718 51.3332 36.561 51.3332 30.247V25.753C51.3332 19.439 51.3332 16.2797 49.1935 13.531C47.0562 10.7823 44.7135 10.304 40.0235 9.34968C36.065 8.55625 32.0371 8.15995 27.9998 8.16668C23.7765 8.16668 19.7282 8.58435 15.9762 9.34968C11.2862 10.3063 8.9435 10.7823 6.80617 13.531C4.6665 16.282 4.6665 19.439 4.6665 25.753V30.247C4.6665 36.561 4.6665 39.7203 6.80617 42.469C8.9435 45.2177 11.2862 45.696 15.9762 46.6503C19.7282 47.4157 23.7765 47.8333 27.9998 47.8333Z" stroke="#0F122C" stroke-width="3.5" stroke-linecap="round" stroke-linejoin="round"/>
<path d="M37.2447 28.7304C36.8993 30.1444 35.056 31.157 31.3717 33.1894C27.363 35.399 25.3587 36.5027 23.737 36.0757C23.1966 35.9361 22.6917 35.6841 22.2553 35.336C21 34.321 21 32.214 21 28C21 23.786 21 21.679 22.2553 20.664C22.68 20.321 23.1887 20.0667 23.737 19.9244C25.3587 19.4974 27.363 20.601 31.3717 22.8107C35.0583 24.8407 36.8993 25.8557 37.2447 27.2697C37.3613 27.7504 37.3613 28.2497 37.2447 28.7304Z" stroke="#0F122C" stroke-width="3.5" stroke-linecap="round" stroke-linejoin="round"/>
</svg>
